<?xml version="1.0" encoding="utf-8"?><svg xmlns="http://www.w3.org/2000/svg" xmlns:xlink="http://www.w3.org/1999/xlink"><symbol viewBox="0 0 34 34" id="cart" xmlns="http://www.w3.org/2000/svg">
    <path d="M17.007 2.83325C20.8036 2.83325 23.9249 5.81662 24.0833 9.59688H24.0463C24.0508 9.70676 24.0296 9.81618 23.9846 9.91659H24.2058C25.9299 9.91659 27.7353 11.1116 28.4592 13.9963L28.5378 14.3367L29.6271 23.1125C30.411 28.7097 27.3487 31.0636 23.1713 31.1633L22.8912 31.1666H11.1471C6.90168 31.1666 3.63027 29.6196 4.34956 23.4933L4.39861 23.1125L5.50041 14.3367C6.0437 11.2301 7.86761 10.0048 9.625 9.92121L9.81993 9.91659H9.93067C9.912 9.81083 9.912 9.70263 9.93067 9.59688C10.0891 5.81662 13.2104 2.83325 17.007 2.83325ZM12.8874 14.6331C12.1959 14.6331 11.6354 15.21 11.6354 15.9217C11.6354 16.6334 12.1959 17.2104 12.8874 17.2104C13.5789 17.2104 14.1394 16.6334 14.1394 15.9217L14.1297 15.7601C14.0524 15.1247 13.5257 14.6331 12.8874 14.6331ZM21.0882 14.6331C20.3968 14.6331 19.8362 15.21 19.8362 15.9217C19.8362 16.6334 20.3968 17.2104 21.0882 17.2104C21.7797 17.2104 22.3403 16.6334 22.3403 15.9217C22.3403 15.21 21.7797 14.6331 21.0882 14.6331ZM16.9515 4.6783C14.2257 4.6783 12.0159 6.88042 12.0159 9.59688C12.0346 9.70263 12.0346 9.81083 12.0159 9.91659H21.9487C21.9093 9.81451 21.8884 9.70625 21.887 9.59688C21.887 6.88042 19.6773 4.6783 16.9515 4.6783Z"/>
</symbol><symbol viewBox="0 0 10 8" id="check-no-shadow" xmlns="http://www.w3.org/2000/svg">
    <path d="M8.341 0.591296C8.49948 0.440421 8.71037 0.357011 8.92917 0.358667C9.14797 0.360322 9.35758 0.446914 9.51375 0.60017C9.66993 0.753425 9.76046 0.961358 9.76624 1.18009C9.77202 1.39883 9.69261 1.61125 9.54475 1.77255L5.056 7.3863C4.97882 7.46943 4.88566 7.53615 4.7821 7.58246C4.67854 7.62877 4.5667 7.65372 4.45328 7.65582C4.33986 7.65792 4.22718 7.63713 4.12198 7.59468C4.01677 7.55224 3.92121 7.48902 3.841 7.4088L0.86425 4.43205C0.781352 4.3548 0.714862 4.26165 0.668747 4.15815C0.622631 4.05465 0.597833 3.94292 0.595834 3.82963C0.593836 3.71634 0.614676 3.60381 0.657112 3.49875C0.699548 3.39369 0.762711 3.29825 0.842832 3.21813C0.922953 3.13801 1.01839 3.07484 1.12345 3.03241C1.22851 2.98997 1.34105 2.96913 1.45434 2.97113C1.56763 2.97313 1.67936 2.99793 1.78286 3.04404C1.88635 3.09016 1.97951 3.15665 2.05675 3.23955L4.4125 5.59417L8.31962 0.616046C8.32666 0.607385 8.33417 0.599122 8.34212 0.591296H8.341Z"/>
</symbol><symbol viewBox="0 0 32 32" id="close" xmlns="http://www.w3.org/2000/svg">
    <path d="M16.0009 14.1153L22.6005 7.51562L24.4861 9.40124L17.8865 16.0009L24.4861 22.6005L22.6005 24.4861L16.0009 17.8865L9.40124 24.4861L7.51562 22.6005L14.1153 16.0009L7.51562 9.40124L9.40124 7.51562L16.0009 14.1153Z"/>
</symbol><symbol viewBox="0 0 32 32" id="mobile-nav" xmlns="http://www.w3.org/2000/svg">
    <path d="M4 5.33325H28V7.99992H4V5.33325ZM4 14.6666H20V17.3333H4V14.6666ZM4 23.9999H28V26.6666H4V23.9999Z"/>
</symbol><symbol viewBox="0 0 25 25" id="plus" xmlns="http://www.w3.org/2000/svg">
    <path d="M22.1342 12.2102C22.1342 11.4411 21.5107 10.8176 20.7416 10.8176H13.7783V3.85427C13.7783 3.08512 13.1547 2.46161 12.3856 2.46161C11.6165 2.46161 10.9929 3.08512 10.9929 3.85427V10.8176H4.02965C3.26051 10.8176 2.63699 11.4411 2.63699 12.2102C2.63699 12.9794 3.26051 13.6029 4.02965 13.6029H10.9929V20.5662C10.9929 21.3353 11.6165 21.9588 12.3856 21.9588C13.1547 21.9588 13.7783 21.3353 13.7783 20.5662V13.6029H20.7416C21.5107 13.6029 22.1342 12.9794 22.1342 12.2102Z"/>
</symbol><symbol viewBox="0 0 18 18" id="search" xmlns="http://www.w3.org/2000/svg">
    <path d="M15.75 15.75L12.3855 12.3795M14.25 7.875C14.25 9.56576 13.5784 11.1873 12.3828 12.3828C11.1873 13.5784 9.56576 14.25 7.875 14.25C6.18424 14.25 4.56274 13.5784 3.36719 12.3828C2.17165 11.1873 1.5 9.56576 1.5 7.875C1.5 6.18424 2.17165 4.56274 3.36719 3.36719C4.56274 2.17165 6.18424 1.5 7.875 1.5C9.56576 1.5 11.1873 2.17165 12.3828 3.36719C13.5784 4.56274 14.25 6.18424 14.25 7.875Z" stroke-width="2" stroke-linecap="round"/>
</symbol><symbol viewBox="0 0 28 28" id="slider-left" xmlns="http://www.w3.org/2000/svg">
    <path d="M22.6958 14.4355H5.48568M5.48568 14.4355C5.48568 14.4355 10.364 11.2272 11.3552 8.56592M5.48568 14.4355C5.48568 14.4355 9.79826 17.45 11.3552 20.305" stroke-width="2.17391" stroke-linecap="square"/>
</symbol><symbol viewBox="0 0 28 28" id="slider-right" xmlns="http://www.w3.org/2000/svg">
    <path d="M5.30417 14.4355H22.5143M22.5143 14.4355C22.5143 14.4355 17.636 11.2272 16.6447 8.56592M22.5143 14.4355C22.5143 14.4355 18.2017 17.45 16.6447 20.305" stroke-width="2.17391" stroke-linecap="square"/>
</symbol><symbol viewBox="0 0 19 19" id="star" xmlns="http://www.w3.org/2000/svg">
    <path d="M14.0303 10.9091C13.833 11.1003 13.7424 11.3767 13.7873 11.6479L14.4644 15.395C14.5215 15.7126 14.3875 16.034 14.1217 16.2176C13.8612 16.408 13.5147 16.4308 13.2306 16.2785L9.85742 14.5192C9.74013 14.4567 9.60989 14.4232 9.47661 14.4194H9.27022C9.19863 14.4301 9.12856 14.4529 9.06458 14.488L5.69065 16.2557C5.52386 16.3394 5.33498 16.3691 5.14991 16.3394C4.69904 16.2541 4.3982 15.8246 4.47208 15.3714L5.14991 11.6243C5.19485 11.3509 5.10421 11.0729 4.90696 10.8786L2.15679 8.21299C1.92678 7.98983 1.84681 7.65472 1.95191 7.35236C2.05397 7.05076 2.31444 6.83065 2.62898 6.78115L6.41418 6.23202C6.70207 6.20232 6.95492 6.02715 7.0844 5.7682L8.75232 2.34854C8.79193 2.27238 8.84295 2.20231 8.90464 2.1429L8.97319 2.08959C9.00898 2.04998 9.05011 2.01723 9.09581 1.99058L9.17882 1.96011L9.3083 1.9068H9.62893C9.9153 1.9365 10.1674 2.10787 10.2992 2.36377L11.9892 5.7682C12.111 6.01725 12.3479 6.19013 12.6213 6.23202L16.4065 6.78115C16.7264 6.82685 16.9937 7.04771 17.0996 7.35236C17.1993 7.65777 17.1133 7.99288 16.8787 8.21299L14.0303 10.9091Z"/>
</symbol><symbol viewBox="0 0 19 19" id="star-off" xmlns="http://www.w3.org/2000/svg">
    <path d="M14.3583 10.9091C14.1611 11.1003 14.0704 11.3767 14.1154 11.6479L14.7925 15.395C14.8496 15.7126 14.7155 16.034 14.4497 16.2176C14.1893 16.408 13.8427 16.4308 13.5586 16.2785L10.1855 14.5192C10.0682 14.4567 9.93796 14.4232 9.80468 14.4194H9.59828C9.52669 14.4301 9.45662 14.4529 9.39265 14.488L6.01872 16.2557C5.85192 16.3394 5.66305 16.3691 5.47797 16.3394C5.0271 16.2541 4.72627 15.8246 4.80014 15.3714L5.47797 11.6243C5.52291 11.3509 5.43228 11.0729 5.23502 10.8786L2.48485 8.21299C2.25484 7.98983 2.17487 7.65472 2.27998 7.35236C2.38203 7.05076 2.6425 6.83065 2.95705 6.78115L6.74225 6.23202C7.03013 6.20232 7.28299 6.02715 7.41246 5.7682L9.08039 2.34854C9.11999 2.27238 9.17102 2.20231 9.23271 2.1429L9.30125 2.08959C9.33705 2.04998 9.37818 2.01723 9.42387 1.99058L9.50689 1.96011L9.63636 1.9068H9.957C10.2434 1.9365 10.4955 2.10787 10.6272 2.36377L12.3172 5.7682C12.4391 6.01725 12.6759 6.19013 12.9494 6.23202L16.7346 6.78115C17.0544 6.82685 17.3218 7.04771 17.4276 7.35236C17.5274 7.65777 17.4413 7.99288 17.2068 8.21299L14.3583 10.9091Z" fill-opacity="0.5"/>
</symbol></svg>