<?xml version="1.0" encoding="utf-8"?><svg viewBox="0 0 34 34" xmlns="http://www.w3.org/2000/svg" xmlns:xlink="http://www.w3.org/1999/xlink"><style>:root>svg{display:none}:root>svg:target{display:block}</style><svg fill="none" viewBox="0 0 34 34" id="cart" xmlns="http://www.w3.org/2000/svg">
    <path d="M17.007 2.833c3.797 0 6.918 2.984 7.076 6.764h-.037a.71.71 0 0 1-.061.32h.22c1.725 0 3.53 1.195 4.254 4.08l.079.34 1.09 8.776c.783 5.597-2.28 7.95-6.457 8.05l-.28.004H11.147c-4.245 0-7.517-1.547-6.797-7.674l.049-.38L5.5 14.337c.544-3.107 2.368-4.332 4.125-4.416l.195-.004h.11a.92.92 0 0 1 0-.32c.16-3.78 3.28-6.764 7.077-6.764Zm-4.12 11.8c-.691 0-1.252.577-1.252 1.289 0 .711.56 1.288 1.252 1.288s1.252-.577 1.252-1.288l-.01-.162c-.077-.635-.603-1.127-1.242-1.127Zm8.201 0c-.691 0-1.252.577-1.252 1.289 0 .711.56 1.288 1.252 1.288s1.252-.577 1.252-1.288c0-.712-.56-1.289-1.252-1.289Zm-4.137-9.955c-2.725 0-4.935 2.202-4.935 4.919a.918.918 0 0 1 0 .32h9.933a.92.92 0 0 1-.062-.32c0-2.717-2.21-4.919-4.936-4.919Z" fill="#fff"/>
</svg><svg fill="none" viewBox="0 0 10 8" id="check-no-shadow" xmlns="http://www.w3.org/2000/svg">
    <path d="M8.341.591a.844.844 0 0 1 1.204 1.182L5.056 7.386a.844.844 0 0 1-1.215.023L.864 4.432A.844.844 0 1 1 2.057 3.24l2.355 2.354L8.32.616a.302.302 0 0 1 .022-.025h-.001Z" fill="#fff"/>
</svg><svg fill="none" viewBox="0 0 32 32" id="close" xmlns="http://www.w3.org/2000/svg">
    <path d="m16 14.115 6.6-6.6 1.886 1.886-6.6 6.6 6.6 6.6-1.886 1.885-6.6-6.6-6.599 6.6L7.516 22.6l6.6-6.6-6.6-6.599L9.4 7.516l6.6 6.6Z" fill="#fff"/>
</svg><svg fill="none" viewBox="0 0 32 32" id="mobile-nav" xmlns="http://www.w3.org/2000/svg">
    <path d="M4 5.333h24V8H4V5.333Zm0 9.334h16v2.666H4v-2.666ZM4 24h24v2.667H4V24Z" fill="#fff"/>
</svg><svg fill="none" viewBox="0 0 25 25" id="plus" xmlns="http://www.w3.org/2000/svg">
    <path d="M22.134 12.21c0-.769-.623-1.392-1.392-1.392h-6.964V3.854a1.393 1.393 0 0 0-2.785 0v6.964H4.03a1.393 1.393 0 1 0 0 2.785h6.963v6.963a1.393 1.393 0 0 0 2.785 0v-6.963h6.964c.769 0 1.392-.624 1.392-1.393Z" fill="#fff"/>
</svg><svg fill="none" viewBox="0 0 18 18" id="search" xmlns="http://www.w3.org/2000/svg">
    <path d="m15.75 15.75-3.364-3.37m1.864-4.505a6.375 6.375 0 1 1-12.75 0 6.375 6.375 0 0 1 12.75 0Z" stroke="#fff" stroke-width="2" stroke-linecap="round"/>
</svg><svg fill="none" viewBox="0 0 28 28" id="slider-left" xmlns="http://www.w3.org/2000/svg">
    <path d="M22.696 14.435H5.486m0 0s4.878-3.208 5.87-5.87m-5.87 5.87s4.312 3.015 5.87 5.87" stroke="#1E1E1E" stroke-width="2.174" stroke-linecap="square"/>
</svg><svg fill="none" viewBox="0 0 28 28" id="slider-right" xmlns="http://www.w3.org/2000/svg">
    <path d="M5.304 14.435h17.21m0 0s-4.878-3.208-5.87-5.87m5.87 5.87s-4.312 3.015-5.87 5.87" stroke="#1E1E1E" stroke-width="2.174" stroke-linecap="square"/>
</svg><svg fill="none" viewBox="0 0 19 19" id="star" xmlns="http://www.w3.org/2000/svg">
    <path d="M14.03 10.91a.838.838 0 0 0-.243.738l.677 3.747a.823.823 0 0 1-.342.823.839.839 0 0 1-.891.06L9.857 14.52a.86.86 0 0 0-.38-.1H9.27a.618.618 0 0 0-.205.069L5.69 16.256c-.167.083-.356.113-.541.083a.847.847 0 0 1-.678-.968l.678-3.747a.853.853 0 0 0-.243-.745l-2.75-2.666a.822.822 0 0 1-.205-.86.855.855 0 0 1 .677-.572l3.785-.549a.847.847 0 0 0 .67-.464l1.668-3.42a.793.793 0 0 1 .153-.205l.068-.053a.51.51 0 0 1 .123-.1l.083-.03.13-.053h.32c.286.03.538.2.67.457l1.69 3.404a.846.846 0 0 0 .632.464l3.786.55c.32.045.587.266.693.57.1.306.013.64-.221.861l-2.849 2.696Z" fill="#F6B76F"/>
</svg><svg fill="none" viewBox="0 0 19 19" id="star-off" xmlns="http://www.w3.org/2000/svg">
    <path d="M14.358 10.91a.838.838 0 0 0-.243.738l.678 3.747a.823.823 0 0 1-.343.823.839.839 0 0 1-.891.06l-3.373-1.759a.86.86 0 0 0-.381-.1h-.207a.618.618 0 0 0-.205.069l-3.374 1.768c-.167.083-.356.113-.541.083a.847.847 0 0 1-.678-.968l.678-3.747a.852.852 0 0 0-.243-.745l-2.75-2.666a.822.822 0 0 1-.205-.86.855.855 0 0 1 .677-.572l3.785-.549a.847.847 0 0 0 .67-.464l1.668-3.42a.793.793 0 0 1 .153-.205L9.3 2.09a.511.511 0 0 1 .123-.1l.083-.03.13-.053h.32c.286.03.538.2.67.457l1.69 3.404a.846.846 0 0 0 .632.464l3.786.55c.32.045.587.266.693.57.1.306.013.64-.221.861l-2.849 2.696Z" fill="#F6B76F" fill-opacity=".5"/>
</svg></svg>